<svg width="54" height="57" viewBox="0 0 54 57" fill="none" xmlns="http://www.w3.org/2000/svg">
<path d="M33.4521 0.649961C33.0671 0.531961 32.643 0.660965 32.388 0.975965C32.132 1.29096 32.091 1.72797 32.285 2.08497C34.361 5.90897 35.458 10.245 35.458 14.625C35.458 16.452 35.27 18.236 34.914 19.959L36.67 21.238C37.18 19.115 37.458 16.902 37.458 14.625C37.458 10.745 36.657 6.89497 35.127 3.35797C44.932 7.33497 51.598 17.053 51.598 27.772C51.598 42.289 39.787 54.099 25.271 54.099C16.405 54.099 8.20705 49.655 3.34805 42.357C5.24705 42.752 7.18401 42.952 9.13101 42.952C21.032 42.952 31.234 35.572 35.422 25.151L33.752 23.935C29.982 33.869 20.37 40.952 9.13101 40.952C6.55301 40.952 3.99305 40.575 1.52505 39.832C1.13805 39.714 0.716001 39.842 0.462001 40.158C0.206001 40.472 0.164997 40.91 0.357997 41.266C5.324 50.416 14.87 56.099 25.27 56.099C40.89 56.099 53.597 43.392 53.597 27.772C53.598 15.377 45.3141 4.22496 33.4521 0.649961Z" fill="white"/>
</svg>
