<svg width="129" height="94" viewBox="0 0 129 94" fill="none" xmlns="http://www.w3.org/2000/svg">
<path d="M71.72 55.0909C71.72 49.2839 74.562 42.8789 79.323 39.5059C79.767 39.1909 80.241 38.8879 80.731 38.6049C83.462 37.0289 86.56 36.1969 89.689 36.1969C99.01 36.1969 106.877 43.4699 107.598 52.7539L107.712 53.6369L108.592 53.6059C118.33 53.6099 126.553 62.1519 126.553 72.2629C126.553 82.3759 118.324 90.9209 108.584 90.9209C104.495 90.9209 100.963 89.7709 98.085 87.2109L97.822 87.1249H96.884L96.536 87.2459C94.758 88.6259 91.056 91.4229 85.178 91.4229C80.862 91.4229 77.888 90.0189 74.211 86.3409L73.572 85.6839L72.918 86.2979C69.738 89.3329 65.607 90.9319 60.974 90.9319C51.065 90.9319 43.004 82.9149 43.004 73.0629C43.004 70.3039 43.633 67.6319 44.872 65.1239C45.093 64.6769 45.336 64.2309 45.597 63.7989C48.889 58.3469 54.572 55.0909 60.908 55.0909C62.45 55.0909 64.379 55.2979 65.379 55.6819V53.7689C64.379 53.4219 62.445 53.2419 60.908 53.2419C53.919 53.2419 47.611 56.8319 43.981 62.8429C43.693 63.3189 43.441 63.8109 43.197 64.3039C41.831 67.0699 41.146 70.0159 41.146 73.0619C41.146 83.9329 50.041 92.7789 60.969 92.7789C65.775 92.7789 70.1 91.2089 73.534 88.2299C77.289 91.7939 80.619 93.1989 85.178 93.1989C91.312 93.1989 95.252 90.4189 97.311 88.8379C100.42 91.4139 104.304 92.7709 108.583 92.7709C119.326 92.7709 128.401 83.3799 128.401 72.2639C128.401 61.4159 119.758 52.2109 109.357 51.7729C108.168 41.9359 99.686 34.3479 89.687 34.3479C86.233 34.3479 82.816 35.2659 79.805 37.0039C79.264 37.3149 78.742 37.6489 78.251 37.9979C73.002 41.7169 69.868 48.6869 69.868 55.0919C69.868 55.1199 69.871 55.0919 69.871 55.1199" fill="white"/>
<path d="M72.103 23.198L77.087 18.213C77.432 17.869 77.432 17.311 77.087 16.967C76.743 16.623 76.186 16.623 75.841 16.967L70.857 21.952C70.512 22.296 70.512 22.854 70.857 23.198C71.2 23.542 71.758 23.542 72.103 23.198Z" fill="white"/>
<path d="M13.157 46.259L1.642 46.505C1.162 46.522 0.783995 46.921 0.791995 47.402C0.800995 47.894 1.21201 48.284 1.70401 48.267L13.219 48.02C13.699 48.004 14.077 47.605 14.069 47.124C14.061 46.632 13.65 46.242 13.157 46.259Z" fill="white"/>
<path d="M47.381 13.455C47.868 13.455 48.381 13.06 48.381 12.574V1.058C48.381 0.571002 47.868 0.177002 47.381 0.177002C46.894 0.177002 46.381 0.571002 46.381 1.058V12.574C46.381 13.06 46.894 13.455 47.381 13.455Z" fill="white"/>
<path d="M23.811 70.244C23.467 69.9 22.909 69.9 22.565 70.244L17.58 75.229C17.235 75.573 17.235 76.131 17.58 76.476C17.924 76.82 18.482 76.82 18.826 76.476L23.811 71.49C24.154 71.146 24.154 70.588 23.811 70.244Z" fill="white"/>
<path d="M22.564 23.198C22.908 23.542 23.466 23.542 23.81 23.198C24.154 22.854 24.154 22.296 23.81 21.952L18.825 16.967C18.481 16.623 17.923 16.623 17.579 16.967C17.235 17.311 17.235 17.869 17.579 18.213L22.564 23.198Z" fill="white"/>
<path d="M64.612 29.4421C55.485 20.3151 40.883 19.9441 31.295 28.3021L32.377 29.3841C36.663 25.6821 41.991 23.8051 47.334 23.8051C53.204 23.8051 59.075 26.0401 63.545 30.5091C65.168 32.1331 66.493 33.9421 67.525 35.8681L68.591 34.6811C67.531 32.8061 66.208 31.0391 64.612 29.4421Z" fill="white"/>
<path d="M31.122 62.933C22.603 54.414 22.231 40.82 29.95 31.822L28.866 30.738C20.557 40.327 20.946 54.891 30.055 64C32.304 66.249 34.889 67.961 37.647 69.148L38.71 67.964C35.947 66.847 33.359 65.17 31.122 62.933Z" fill="white"/>
</svg>
