<svg width="117" height="64" viewBox="0 0 117 64" fill="none" xmlns="http://www.w3.org/2000/svg">
<path d="M67.454 5.159C62.693 8.532 59.851 14.937 59.851 20.744C59.851 20.716 58 20.772 58 20.744C58 14.339 61.134 7.36902 66.383 3.65002C66.874 3.30102 67.396 2.96701 67.937 2.65601C70.948 0.918006 74.365 0 77.819 0C87.818 0 96.3 7.58799 97.489 17.425C107.89 17.863 116.533 27.068 116.533 37.916C116.533 49.032 107.458 58.423 96.715 58.423C92.436 58.423 88.552 57.066 85.443 54.49C83.384 56.071 79.444 58.851 73.31 58.851C68.751 58.851 65.421 57.446 61.666 53.882L61.704 51.337L62.343 51.994C66.02 55.672 68.994 57.076 73.31 57.076C79.188 57.076 82.889 54.279 84.667 52.899L85.015 52.778H85.953L86.216 52.864C89.094 55.424 92.626 56.574 96.715 56.574C106.455 56.574 114.684 48.029 114.684 37.916C114.684 27.805 106.461 19.263 96.723 19.259L95.843 19.29L95.729 18.407C95.008 9.12298 87.141 1.84998 77.82 1.84998C74.691 1.84998 71.593 2.682 68.862 4.258C68.372 4.541 67.898 4.844 67.454 5.159Z" fill="url(#paint0_linear)"/>
<path d="M30.573 25.744C30.573 19.937 33.415 13.532 38.176 10.159C38.62 9.844 39.094 9.541 39.584 9.258C42.315 7.682 45.413 6.84998 48.542 6.84998C57.863 6.84998 65.73 14.123 66.451 23.407L66.565 24.29L67.445 24.259C77.183 24.263 85.406 32.805 85.406 42.916C85.406 53.029 77.177 61.574 67.437 61.574C63.348 61.574 59.816 60.424 56.938 57.864L56.675 57.778H55.737L55.389 57.899C53.611 59.279 49.91 62.076 44.032 62.076C39.716 62.076 36.742 60.672 33.065 56.994L32.426 56.337L31.772 56.951C28.592 59.986 24.46 61.585 19.828 61.585C9.919 61.585 1.85797 53.568 1.85797 43.716C1.85797 40.957 2.48695 38.285 3.72595 35.777C3.94695 35.33 4.18999 34.884 4.45099 34.452C7.74299 29 13.427 25.744 19.763 25.744C21.305 25.744 23.234 25.951 24.234 26.335V24.421C23.234 24.074 21.3 23.894 19.763 23.894C12.774 23.894 6.46596 27.484 2.83496 33.495C2.54796 33.971 2.295 34.463 2.052 34.956C0.686002 37.722 0 40.668 0 43.714C0 54.585 8.896 63.431 19.823 63.431C24.629 63.431 28.954 61.861 32.388 58.882C36.143 62.446 39.473 63.851 44.032 63.851C50.166 63.851 54.106 61.071 56.165 59.49C59.274 62.066 63.158 63.423 67.437 63.423C78.18 63.423 87.255 54.032 87.255 42.916C87.255 32.068 78.612 22.863 68.211 22.425C67.022 12.588 58.54 5 48.541 5C45.087 5 41.67 5.91801 38.659 7.65601C38.118 7.96701 37.596 8.30102 37.105 8.65002C31.856 12.369 28.722 19.339 28.722 25.744C28.722 25.772 28.725 25.744 28.725 25.772" fill="white"/>
<defs>
<linearGradient id="paint0_linear" x1="87.2665" y1="0" x2="87.2665" y2="58.851" gradientUnits="userSpaceOnUse">
<stop stop-color="#302B2B"/>
<stop offset="1" stop-color="#3E3E3E"/>
</linearGradient>
</defs>
</svg>
