<svg width="109" height="84" viewBox="0 0 109 84" fill="none" xmlns="http://www.w3.org/2000/svg">
<path d="M29.367 22.1841C29.367 16.6131 32.094 10.4671 36.661 7.23112C37.087 6.92912 37.542 6.63813 38.013 6.36713C40.633 4.85413 43.605 4.05513 46.608 4.05513C55.551 4.05513 63.098 11.0341 63.791 19.9421L63.9 20.7891L64.745 20.7591C74.087 20.7631 81.978 28.9591 81.978 38.6601C81.978 48.3631 74.082 56.5611 64.737 56.5611C60.814 56.5611 57.425 55.4091 54.664 52.9531L54.411 52.8221H53.512L53.178 52.9871C51.472 54.3111 47.922 57.0191 42.282 57.0191C38.139 57.0191 35.287 55.6841 31.759 52.1551L31.146 51.5311L30.519 52.1231C27.467 55.0351 23.504 56.5711 19.058 56.5711C9.55103 56.5711 1.81703 48.8791 1.81703 39.4271C1.81703 36.7801 2.42003 34.2161 3.60903 31.8091C3.82103 31.3811 4.05503 30.9531 4.30503 30.5391C7.46403 25.3081 12.816 22.1841 18.896 22.1841C20.375 22.1841 22.086 22.3821 23.086 22.7511V20.9151C22.086 20.5811 20.37 20.4091 18.896 20.4091C12.189 20.4091 6.18703 23.8531 2.70503 29.6211C2.42903 30.0781 2.21104 30.5501 1.97704 31.0231C0.666036 33.6761 0.0220337 36.5021 0.0220337 39.4251C0.0220337 49.8561 8.56304 58.3431 19.048 58.3431C23.659 58.3431 27.812 56.8371 31.106 53.9781C34.708 57.3981 37.905 58.7471 42.279 58.7471C48.164 58.7471 51.946 56.0791 53.921 54.5621C56.903 57.0331 60.63 58.3361 64.736 58.3361C75.043 58.3361 83.752 49.3261 83.752 38.6601C83.752 28.2521 75.46 19.4201 65.48 19.0001C64.338 9.56112 56.201 2.28113 46.608 2.28113C43.294 2.28113 40.015 3.16213 37.126 4.82913C36.608 5.12813 36.106 5.44813 35.635 5.78313C30.599 9.35113 27.592 16.0381 27.592 22.1841C27.592 22.2111 27.595 22.1841 27.595 22.2111" fill="#FFFEFE"/>
<path d="M15.112 76.4911C14.963 76.4911 14.811 76.4581 14.669 76.3871C14.174 76.1411 13.972 75.5411 14.217 75.0471L18.954 65.4951C19.2 65.0011 19.799 64.7991 20.294 65.0441C20.789 65.2891 20.991 65.8891 20.746 66.3841L16.009 75.9351C15.834 76.2861 15.48 76.4911 15.112 76.4911Z" fill="#FFFEFE"/>
<path d="M31.177 76.4911C31.028 76.4911 30.876 76.4581 30.734 76.3871C30.239 76.1411 30.037 75.5411 30.282 75.0471L35.019 65.4951C35.265 65.0011 35.865 64.7991 36.359 65.0441C36.854 65.2891 37.056 65.8891 36.811 66.3841L32.074 75.9351C31.899 76.2861 31.545 76.4911 31.177 76.4911Z" fill="#FFFEFE"/>
<path d="M47.177 76.4911C47.028 76.4911 46.876 76.4581 46.734 76.3871C46.239 76.1411 46.037 75.5411 46.282 75.0471L51.019 65.4951C51.264 65.0011 51.865 64.7991 52.359 65.0441C52.854 65.2891 53.056 65.8891 52.811 66.3841L48.074 75.9351C47.899 76.2861 47.545 76.4911 47.177 76.4911Z" fill="#FFFEFE"/>
<path d="M19.829 83.2662C19.68 83.2662 19.529 83.2332 19.386 83.1622C18.891 82.9162 18.689 82.3172 18.934 81.8222L24.67 70.2702C24.916 69.7752 25.515 69.5742 26.011 69.8182C26.505 70.0642 26.707 70.6632 26.462 71.1592L20.726 82.7102C20.551 83.0622 20.197 83.2662 19.829 83.2662Z" fill="#FFFEFE"/>
<path d="M51.981 83.2662C51.832 83.2662 51.681 83.2332 51.538 83.1622C51.043 82.9162 50.841 82.3162 51.086 81.8222L56.823 70.2702C57.068 69.7752 57.668 69.5742 58.163 69.8182C58.658 70.0642 58.86 70.6642 58.615 71.1592L52.878 82.7102C52.703 83.0622 52.349 83.2662 51.981 83.2662Z" fill="#FFFEFE"/>
<path d="M35.905 83.2662C35.756 83.2662 35.605 83.2332 35.462 83.1622C34.967 82.9162 34.765 82.3162 35.01 81.8222L40.747 70.2702C40.993 69.7752 41.592 69.5742 42.087 69.8182C42.582 70.0642 42.784 70.6642 42.539 71.1592L36.802 82.7102C36.627 83.0622 36.273 83.2662 35.905 83.2662Z" fill="#FFFEFE"/>
<path d="M63.177 76.4911C63.028 76.4911 62.876 76.4581 62.734 76.3871C62.239 76.1411 62.037 75.5411 62.282 75.0471L67.019 65.4951C67.265 65.0011 67.864 64.7991 68.359 65.0441C68.854 65.2891 69.056 65.8891 68.811 66.3841L64.074 75.9351C63.899 76.2861 63.545 76.4911 63.177 76.4911Z" fill="#FFFEFE"/>
<path d="M59.454 5.159C54.693 8.532 51.851 14.937 51.851 20.744C51.851 20.716 50 20.772 50 20.744C50 14.339 53.134 7.36902 58.383 3.65002C58.874 3.30102 59.396 2.96701 59.937 2.65601C62.948 0.918006 66.365 0 69.819 0C79.818 0 88.3 7.58799 89.489 17.425C99.89 17.863 108.533 27.068 108.533 37.916C108.533 49.032 99.458 58.423 88.715 58.423C84.436 58.423 80.552 57.066 77.443 54.49C75.384 56.071 71.444 58.851 65.31 58.851C60.751 58.851 57.421 57.446 53.666 53.882L53.704 51.337L54.343 51.994C58.02 55.672 60.994 57.076 65.31 57.076C71.188 57.076 74.889 54.279 76.667 52.899L77.015 52.778H77.953L78.216 52.864C81.094 55.424 84.626 56.574 88.715 56.574C98.455 56.574 106.684 48.029 106.684 37.916C106.684 27.805 98.461 19.263 88.723 19.259L87.843 19.29L87.729 18.407C87.008 9.12298 79.141 1.84998 69.82 1.84998C66.691 1.84998 63.593 2.682 60.862 4.258C60.372 4.541 59.898 4.844 59.454 5.159Z" fill="url(#paint0_linear)"/>
<defs>
<linearGradient id="paint0_linear" x1="79.2665" y1="0" x2="79.2665" y2="58.851" gradientUnits="userSpaceOnUse">
<stop stop-color="#302B2B"/>
<stop offset="1" stop-color="#3E3E3E"/>
</linearGradient>
</defs>
</svg>
