<svg width="114" height="95" viewBox="0 0 114 95" fill="none" xmlns="http://www.w3.org/2000/svg">
<path d="M25.0329 53.4921C16.1669 53.4921 7.96883 49.0481 3.10983 41.7491C5.00883 42.1451 6.94585 42.3451 8.89285 42.3451C20.7929 42.3451 30.9969 34.9641 35.1839 24.5441L33.5138 23.3281C29.7448 33.2621 20.1319 40.3451 8.89285 40.3451C6.31485 40.3451 3.75487 39.9681 1.28787 39.2241C0.901872 39.1071 0.478846 39.2351 0.223846 39.5511C-0.0311541 39.8651 -0.0721815 40.3031 0.120819 40.6591C5.05782 49.7531 14.5178 55.4171 24.8448 55.4861C25.0188 54.8091 25.2148 54.1431 25.4248 53.4821C25.2938 53.4841 25.1639 53.4921 25.0329 53.4921Z" fill="white"/>
<path d="M53.3598 27.1652C53.3598 14.7702 45.0758 3.61715 33.2138 0.0431469C32.8298 -0.0748531 32.4058 0.0541662 32.1518 0.369166C31.8958 0.684166 31.8548 1.12114 32.0478 1.47814C34.1238 5.30214 35.2209 9.63815 35.2209 14.0182C35.2209 15.8452 35.0328 17.6292 34.6768 19.3522L36.4339 20.6312C36.9439 18.5082 37.2209 16.2952 37.2209 14.0182C37.2209 10.1382 36.4199 6.28815 34.8899 2.75115C44.6959 6.72815 51.3609 16.4462 51.3609 27.1652C51.3609 27.7632 51.2938 27.9882 51.2938 27.9882L53.3278 28.4731C53.3268 28.4731 53.3598 27.6042 53.3598 27.1652Z" fill="white"/>
<path d="M59.367 33.1841C59.367 27.6131 62.094 21.4671 66.661 18.2311C67.087 17.9291 67.542 17.6381 68.013 17.3671C70.633 15.8541 73.605 15.0551 76.608 15.0551C85.551 15.0551 93.098 22.0341 93.791 30.9421L93.9 31.7891L94.745 31.7591C104.087 31.7631 111.978 39.9591 111.978 49.6601C111.978 59.3631 104.082 67.5611 94.737 67.5611C90.814 67.5611 87.425 66.4091 84.664 63.9531L84.411 63.8221H83.512L83.178 63.9871C81.472 65.3111 77.922 68.0191 72.282 68.0191C68.139 68.0191 65.287 66.6841 61.759 63.1551L61.146 62.5311L60.519 63.1231C57.467 66.0351 53.504 67.5711 49.058 67.5711C39.551 67.5711 31.817 59.8791 31.817 50.4271C31.817 47.7801 32.42 45.2161 33.609 42.8091C33.821 42.3811 34.055 41.9531 34.305 41.5391C37.464 36.3081 42.816 33.1841 48.896 33.1841C50.375 33.1841 52.086 33.3821 53.086 33.7511V31.9151C52.086 31.5811 50.37 31.4091 48.896 31.4091C42.189 31.4091 36.187 34.8531 32.705 40.6211C32.429 41.0781 32.211 41.5501 31.977 42.0231C30.666 44.6761 30.022 47.5021 30.022 50.4251C30.022 60.8561 38.563 69.3431 49.048 69.3431C53.659 69.3431 57.812 67.8371 61.106 64.9781C64.708 68.3981 67.905 69.7471 72.279 69.7471C78.164 69.7471 81.946 67.0791 83.921 65.5621C86.903 68.0331 90.63 69.3361 94.736 69.3361C105.043 69.3361 113.752 60.3261 113.752 49.6601C113.752 39.2521 105.46 30.4201 95.48 30.0001C94.338 20.5611 86.201 13.2811 76.608 13.2811C73.294 13.2811 70.015 14.1621 67.126 15.8291C66.608 16.1281 66.106 16.4481 65.635 16.7831C60.599 20.3511 57.592 27.0381 57.592 33.1841C57.592 33.2111 57.595 33.1841 57.595 33.2111" fill="#FFFEFE"/>
<path d="M45.112 87.4911C44.963 87.4911 44.811 87.4581 44.669 87.3871C44.174 87.1411 43.972 86.5411 44.217 86.0471L48.954 76.4951C49.2 76.0011 49.799 75.7991 50.294 76.0441C50.789 76.2891 50.991 76.8891 50.746 77.3841L46.009 86.9351C45.834 87.2861 45.48 87.4911 45.112 87.4911Z" fill="#FFFEFE"/>
<path d="M61.177 87.4911C61.028 87.4911 60.876 87.4581 60.734 87.3871C60.239 87.1411 60.037 86.5411 60.282 86.0471L65.019 76.4951C65.265 76.0011 65.865 75.7991 66.359 76.0441C66.854 76.2891 67.056 76.8891 66.811 77.3841L62.074 86.9351C61.899 87.2861 61.545 87.4911 61.177 87.4911Z" fill="#FFFEFE"/>
<path d="M77.177 87.4911C77.028 87.4911 76.876 87.4581 76.734 87.3871C76.239 87.1411 76.037 86.5411 76.282 86.0471L81.019 76.4951C81.264 76.0011 81.865 75.7991 82.359 76.0441C82.854 76.2891 83.056 76.8891 82.811 77.3841L78.074 86.9351C77.899 87.2861 77.545 87.4911 77.177 87.4911Z" fill="#FFFEFE"/>
<path d="M49.829 94.2662C49.68 94.2662 49.529 94.2332 49.386 94.1622C48.891 93.9162 48.689 93.3172 48.934 92.8222L54.67 81.2702C54.916 80.7752 55.515 80.5742 56.011 80.8182C56.505 81.0642 56.707 81.6632 56.462 82.1592L50.726 93.7102C50.551 94.0622 50.197 94.2662 49.829 94.2662Z" fill="#FFFEFE"/>
<path d="M81.981 94.2662C81.832 94.2662 81.681 94.2332 81.538 94.1622C81.043 93.9162 80.841 93.3162 81.086 92.8222L86.823 81.2702C87.068 80.7752 87.668 80.5742 88.163 80.8182C88.658 81.0642 88.86 81.6642 88.615 82.1592L82.878 93.7102C82.703 94.0622 82.349 94.2662 81.981 94.2662Z" fill="#FFFEFE"/>
<path d="M65.905 94.2662C65.756 94.2662 65.605 94.2332 65.462 94.1622C64.967 93.9162 64.765 93.3162 65.01 92.8222L70.747 81.2702C70.993 80.7752 71.592 80.5742 72.087 80.8182C72.582 81.0642 72.784 81.6642 72.539 82.1592L66.802 93.7102C66.627 94.0622 66.273 94.2662 65.905 94.2662Z" fill="#FFFEFE"/>
<path d="M93.177 87.4911C93.028 87.4911 92.876 87.4581 92.734 87.3871C92.239 87.1411 92.037 86.5411 92.282 86.0471L97.019 76.4951C97.265 76.0011 97.864 75.7991 98.359 76.0441C98.854 76.2891 99.056 76.8891 98.811 77.3841L94.074 86.9351C93.899 87.2861 93.545 87.4911 93.177 87.4911Z" fill="#FFFEFE"/>
</svg>
