<svg width="73" height="73" viewBox="0 0 73 73" fill="none" xmlns="http://www.w3.org/2000/svg">
<path d="M72.3088 69.0285L53.461 50.4823C58.3967 45.12 61.4293 38.0282 61.4293 30.2245C61.4269 13.5309 47.6766 0 30.7134 0C13.7503 0 0 13.5309 0 30.2245C0 46.9181 13.7503 60.449 30.7134 60.449C38.0427 60.449 44.7649 57.914 50.0452 53.6995L68.9661 72.3189C69.888 73.227 71.3847 73.227 72.3067 72.3189C73.2307 71.4108 73.2307 69.9367 72.3088 69.0285ZM30.7134 55.7988C16.3608 55.7988 4.7257 44.3488 4.7257 30.2245C4.7257 16.1002 16.3608 4.65022 30.7134 4.65022C45.0662 4.65022 56.7012 16.1002 56.7012 30.2245C56.7012 44.3488 45.0662 55.7988 30.7134 55.7988Z" fill="black"/>
</svg>
