<svg width="88" height="59" viewBox="0 0 88 59" fill="none" xmlns="http://www.w3.org/2000/svg">
<path d="M30.573 20.744C30.573 14.937 33.415 8.532 38.176 5.159C38.62 4.844 39.094 4.541 39.584 4.258C42.315 2.682 45.413 1.84998 48.542 1.84998C57.863 1.84998 65.73 9.12298 66.451 18.407L66.565 19.29L67.445 19.259C77.183 19.263 85.406 27.805 85.406 37.916C85.406 48.029 77.177 56.574 67.437 56.574C63.348 56.574 59.816 55.424 56.938 52.864L56.675 52.778H55.737L55.389 52.899C53.611 54.279 49.91 57.076 44.032 57.076C39.716 57.076 36.742 55.672 33.065 51.994L32.426 51.337L31.772 51.951C28.592 54.986 24.46 56.585 19.828 56.585C9.919 56.585 1.85797 48.568 1.85797 38.716C1.85797 35.957 2.48695 33.285 3.72595 30.777C3.94695 30.33 4.18999 29.884 4.45099 29.452C7.74299 24 13.427 20.744 19.763 20.744C21.305 20.744 23.234 20.951 24.234 21.335V19.421C23.234 19.074 21.3 18.894 19.763 18.894C12.774 18.894 6.46596 22.484 2.83496 28.495C2.54796 28.971 2.295 29.463 2.052 29.956C0.686002 32.722 0 35.668 0 38.714C0 49.585 8.896 58.431 19.823 58.431C24.629 58.431 28.954 56.861 32.388 53.882C36.143 57.446 39.473 58.851 44.032 58.851C50.166 58.851 54.106 56.071 56.165 54.49C59.274 57.066 63.158 58.423 67.437 58.423C78.18 58.423 87.255 49.032 87.255 37.916C87.255 27.068 78.612 17.863 68.211 17.425C67.022 7.58799 58.54 0 48.541 0C45.087 0 41.67 0.918006 38.659 2.65601C38.118 2.96701 37.596 3.30102 37.105 3.65002C31.856 7.36902 28.722 14.339 28.722 20.744C28.722 20.772 28.725 20.744 28.725 20.772" fill="white"/>
</svg>
