<svg width="106" height="87" viewBox="0 0 106 87" fill="none" xmlns="http://www.w3.org/2000/svg">
<path d="M42.612 7.44197C33.485 -1.68503 18.883 -2.05603 9.29498 6.30197L10.377 7.38397C14.663 3.68197 19.991 1.80496 25.334 1.80496C31.204 1.80496 37.075 4.03997 41.545 8.50897C43.168 10.133 44.493 11.942 45.526 13.868L46.592 12.681C45.531 10.806 44.208 9.03897 42.612 7.44197Z" fill="#FFFEFE"/>
<path d="M9.122 40.933C0.603 32.414 0.230996 18.82 7.95 9.82204L6.866 8.73804C-1.443 18.327 -1.054 32.891 8.055 42C10.304 44.249 12.889 45.961 15.647 47.148L16.71 45.964C13.947 44.847 11.359 43.17 9.122 40.933Z" fill="#FFFEFE"/>
<path d="M50.662 25.487C50.662 19.916 53.389 13.77 57.956 10.534C58.382 10.232 58.837 9.94098 59.308 9.66998C61.928 8.15698 64.9 7.35799 67.903 7.35799C76.846 7.35799 84.393 14.337 85.086 23.245L85.195 24.092L86.04 24.062C95.382 24.066 103.273 32.262 103.273 41.963C103.273 51.666 95.377 59.864 86.032 59.864C82.109 59.864 78.72 58.712 75.959 56.256L75.706 56.125H74.807L74.473 56.29C72.767 57.614 69.217 60.322 63.577 60.322C59.434 60.322 56.582 58.987 53.054 55.458L52.441 54.834L51.814 55.426C48.762 58.338 44.799 59.874 40.353 59.874C30.846 59.874 23.112 52.182 23.112 42.73C23.112 40.083 23.715 37.519 24.904 35.112C25.116 34.684 25.35 34.256 25.6 33.842C28.759 28.611 34.111 25.487 40.191 25.487C41.67 25.487 43.381 25.685 44.381 26.054V24.218C43.381 23.884 41.665 23.712 40.191 23.712C33.484 23.712 27.482 27.156 24 32.924C23.724 33.381 23.506 33.853 23.272 34.326C21.961 36.979 21.317 39.805 21.317 42.728C21.317 53.159 29.858 61.646 40.343 61.646C44.954 61.646 49.107 60.14 52.401 57.281C56.003 60.701 59.2 62.05 63.574 62.05C69.459 62.05 73.241 59.382 75.216 57.865C78.198 60.336 81.925 61.639 86.031 61.639C96.338 61.639 105.047 52.629 105.047 41.963C105.047 31.555 96.755 22.723 86.775 22.303C85.633 12.864 77.496 5.58398 67.903 5.58398C64.589 5.58398 61.31 6.46499 58.421 8.13199C57.903 8.43099 57.401 8.75098 56.93 9.08598C51.894 12.654 48.887 19.341 48.887 25.487C48.887 25.514 48.89 25.487 48.89 25.514" fill="#FFFEFE"/>
<path d="M36.407 79.794C36.258 79.794 36.106 79.761 35.964 79.69C35.469 79.444 35.267 78.844 35.512 78.35L40.249 68.798C40.495 68.304 41.094 68.1019 41.589 68.3469C42.084 68.5919 42.286 69.192 42.041 69.687L37.304 79.238C37.129 79.589 36.775 79.794 36.407 79.794Z" fill="#FFFEFE"/>
<path d="M52.472 79.794C52.323 79.794 52.171 79.761 52.029 79.69C51.534 79.444 51.332 78.844 51.577 78.35L56.314 68.798C56.56 68.304 57.16 68.1019 57.654 68.3469C58.149 68.5919 58.351 69.192 58.106 69.687L53.369 79.238C53.194 79.589 52.84 79.794 52.472 79.794Z" fill="#FFFEFE"/>
<path d="M68.472 79.794C68.323 79.794 68.171 79.761 68.029 79.69C67.534 79.444 67.332 78.844 67.577 78.35L72.314 68.798C72.559 68.304 73.16 68.1019 73.654 68.3469C74.149 68.5919 74.351 69.192 74.106 69.687L69.369 79.238C69.194 79.589 68.84 79.794 68.472 79.794Z" fill="#FFFEFE"/>
<path d="M41.124 86.569C40.975 86.569 40.824 86.536 40.681 86.465C40.186 86.219 39.984 85.62 40.229 85.125L45.965 73.573C46.211 73.078 46.81 72.877 47.306 73.121C47.8 73.367 48.002 73.966 47.757 74.462L42.021 86.013C41.846 86.365 41.492 86.569 41.124 86.569Z" fill="#FFFEFE"/>
<path d="M73.276 86.569C73.127 86.569 72.976 86.536 72.833 86.465C72.338 86.219 72.136 85.619 72.381 85.125L78.118 73.573C78.363 73.078 78.963 72.877 79.458 73.121C79.953 73.367 80.155 73.967 79.91 74.462L74.173 86.013C73.998 86.365 73.644 86.569 73.276 86.569Z" fill="#FFFEFE"/>
<path d="M57.2 86.569C57.051 86.569 56.9 86.536 56.757 86.465C56.262 86.219 56.06 85.619 56.305 85.125L62.042 73.573C62.288 73.078 62.887 72.877 63.382 73.121C63.877 73.367 64.079 73.967 63.834 74.462L58.097 86.013C57.922 86.365 57.568 86.569 57.2 86.569Z" fill="#FFFEFE"/>
<path d="M84.472 79.794C84.323 79.794 84.171 79.761 84.029 79.69C83.534 79.444 83.332 78.844 83.577 78.35L88.314 68.798C88.56 68.304 89.159 68.1019 89.654 68.3469C90.149 68.5919 90.351 69.192 90.106 69.687L85.369 79.238C85.194 79.589 84.84 79.794 84.472 79.794Z" fill="#FFFEFE"/>
</svg>
