<svg width="85" height="79" viewBox="0 0 85 79" fill="none" xmlns="http://www.w3.org/2000/svg">
<path d="M30.031 20.683C30.031 15.112 32.758 8.96598 37.325 5.72998C37.751 5.42798 38.206 5.13703 38.678 4.86603C41.297 3.35303 44.27 2.55402 47.273 2.55402C56.215 2.55402 63.762 9.53298 64.456 18.441L64.565 19.288L65.41 19.258C74.752 19.262 82.643 27.458 82.643 37.159C82.643 46.862 74.747 55.06 65.402 55.06C61.479 55.06 58.09 53.909 55.329 51.452L55.076 51.321H54.176L53.842 51.486C52.137 52.81 48.586 55.518 42.946 55.518C38.804 55.518 35.951 54.183 32.423 50.654L31.811 50.03L31.184 50.622C28.131 53.534 24.168 55.071 19.723 55.071C10.215 55.071 2.48199 47.378 2.48199 37.926C2.48199 35.279 3.08499 32.715 4.27399 30.308C4.48599 29.88 4.71899 29.452 4.96899 29.038C8.12799 23.807 13.481 20.683 19.561 20.683C21.04 20.683 22.751 20.881 23.751 21.25V19.414C22.751 19.08 21.035 18.908 19.561 18.908C12.854 18.908 6.852 22.352 3.37 28.12C3.094 28.577 2.87601 29.049 2.64301 29.522C1.33101 32.175 0.687988 35.001 0.687988 37.924C0.687988 48.355 9.22901 56.843 19.713 56.843C24.324 56.843 28.478 55.337 31.772 52.478C35.374 55.898 38.571 57.248 42.945 57.248C48.83 57.248 52.612 54.58 54.587 53.062C57.569 55.533 61.296 56.835 65.402 56.835C75.709 56.835 84.418 47.825 84.418 37.159C84.418 26.751 76.126 17.919 66.147 17.499C65.004 8.06002 56.868 0.780029 47.275 0.780029C43.961 0.780029 40.682 1.661 37.793 3.328C37.274 3.627 36.773 3.94698 36.302 4.28198C31.267 7.84998 28.259 14.537 28.259 20.683C28.259 20.71 28.262 20.683 28.262 20.71" fill="white"/>
<path d="M26.545 67.866C27.3701 67.866 28.039 67.1971 28.039 66.3719C28.039 65.5468 27.3701 64.8779 26.545 64.8779C25.7199 64.8779 25.051 65.5468 25.051 66.3719C25.051 67.1971 25.7199 67.866 26.545 67.866Z" fill="white"/>
<path d="M42.546 67.866C43.3711 67.866 44.04 67.1971 44.04 66.3719C44.04 65.5468 43.3711 64.8779 42.546 64.8779C41.7209 64.8779 41.052 65.5468 41.052 66.3719C41.052 67.1971 41.7209 67.866 42.546 67.866Z" fill="white"/>
<path d="M58.547 67.866C59.3721 67.866 60.041 67.1971 60.041 66.3719C60.041 65.5468 59.3721 64.8779 58.547 64.8779C57.7219 64.8779 57.053 65.5468 57.053 66.3719C57.053 67.1971 57.7219 67.866 58.547 67.866Z" fill="white"/>
<path d="M33.545 73.867C34.3701 73.867 35.039 73.1981 35.039 72.373C35.039 71.5479 34.3701 70.879 33.545 70.879C32.7199 70.879 32.051 71.5479 32.051 72.373C32.051 73.1981 32.7199 73.867 33.545 73.867Z" fill="white"/>
<path d="M48.546 73.867C49.3711 73.867 50.04 73.1981 50.04 72.373C50.04 71.5479 49.3711 70.879 48.546 70.879C47.7209 70.879 47.052 71.5479 47.052 72.373C47.052 73.1981 47.7209 73.867 48.546 73.867Z" fill="white"/>
<path d="M23.544 78.868C24.3691 78.868 25.038 78.1991 25.038 77.374C25.038 76.5489 24.3691 75.88 23.544 75.88C22.7189 75.88 22.05 76.5489 22.05 77.374C22.05 78.1991 22.7189 78.868 23.544 78.868Z" fill="white"/>
<path d="M39.545 78.868C40.3701 78.868 41.039 78.1991 41.039 77.374C41.039 76.5489 40.3701 75.88 39.545 75.88C38.7199 75.88 38.051 76.5489 38.051 77.374C38.051 78.1991 38.7199 78.868 39.545 78.868Z" fill="white"/>
<path d="M18.542 73.867C19.3671 73.867 20.036 73.1981 20.036 72.373C20.036 71.5479 19.3671 70.879 18.542 70.879C17.7169 70.879 17.048 71.5479 17.048 72.373C17.048 73.1981 17.7169 73.867 18.542 73.867Z" fill="white"/>
</svg>
