<svg width="114" height="71" viewBox="0 0 114 71" fill="none" xmlns="http://www.w3.org/2000/svg">
<path d="M58.938 34.0719C58.938 28.5009 61.665 22.3549 66.232 19.1189C66.658 18.8169 67.113 18.5259 67.585 18.2549C70.204 16.7419 73.177 15.9429 76.18 15.9429C85.122 15.9429 92.669 22.9219 93.363 31.8299L93.472 32.6769L94.317 32.6469C103.659 32.6509 111.55 40.8469 111.55 50.5479C111.55 60.2509 103.653 68.4489 94.309 68.4489C90.386 68.4489 86.997 67.2969 84.236 64.8409L83.983 64.7099H83.084L82.75 64.8749C81.045 66.1989 77.494 68.907 71.855 68.907C67.713 68.907 64.86 67.5719 61.332 64.0429L60.72 63.4189L60.093 64.0109C57.04 66.9229 53.077 68.459 48.632 68.459C39.124 68.459 31.391 60.7669 31.391 51.3149C31.391 48.6679 31.994 46.1039 33.183 43.6969C33.395 43.2689 33.628 42.8409 33.878 42.4269C37.037 37.1959 42.39 34.0719 48.47 34.0719C49.949 34.0719 51.659 34.2699 52.659 34.6389V32.8029C51.659 32.4689 49.943 32.2969 48.47 32.2969C41.763 32.2969 35.761 35.7409 32.279 41.5089C32.003 41.9659 31.785 42.4379 31.551 42.9109C30.24 45.5639 29.596 48.3899 29.596 51.3129C29.596 61.7439 38.137 70.2309 48.621 70.2309C53.232 70.2309 57.386 68.7249 60.68 65.8659C64.282 69.2859 67.479 70.6349 71.853 70.6349C77.738 70.6349 81.52 67.967 83.495 66.45C86.477 68.921 90.204 70.2239 94.31 70.2239C104.617 70.2239 113.326 61.2139 113.326 50.5479C113.326 40.1399 105.034 31.3079 95.055 30.8879C93.912 21.4489 85.776 14.1689 76.183 14.1689C72.868 14.1689 69.59 15.0499 66.701 16.7169C66.183 17.0159 65.681 17.3359 65.21 17.6709C60.175 21.2389 57.167 27.9259 57.167 34.0719C57.167 34.0989 57.17 34.0719 57.17 34.0989" fill="white"/>
<path d="M25.5461 53.685C16.6801 53.685 8.48202 49.241 3.62302 41.942C5.52202 42.338 7.45904 42.538 9.40604 42.538C21.306 42.538 31.5101 35.157 35.6971 24.737L34.027 23.521C30.258 33.455 20.645 40.538 9.40604 40.538C6.82804 40.538 4.26806 40.161 1.80106 39.417C1.41506 39.3 0.992029 39.428 0.737029 39.744C0.482029 40.058 0.441002 40.496 0.634002 40.852C5.571 49.946 15.031 55.61 25.358 55.679C25.532 55.002 25.728 54.336 25.938 53.675C25.807 53.677 25.6771 53.685 25.5461 53.685Z" fill="white"/>
<path d="M53.873 27.358C53.873 14.963 45.589 3.81002 33.727 0.236018C33.343 0.118018 32.919 0.247037 32.665 0.562037C32.409 0.877037 32.368 1.31402 32.561 1.67102C34.637 5.49502 35.734 9.83102 35.734 14.211C35.734 16.038 35.546 17.822 35.19 19.545L36.947 20.824C37.457 18.701 37.734 16.488 37.734 14.211C37.734 10.331 36.933 6.48103 35.403 2.94403C45.209 6.92103 51.8741 16.639 51.8741 27.358C51.8741 27.956 51.807 28.181 51.807 28.181L53.841 28.666C53.84 28.666 53.873 27.797 53.873 27.358Z" fill="white"/>
</svg>
