<svg width="70" height="76" viewBox="0 0 70 76" fill="none" xmlns="http://www.w3.org/2000/svg">
<path d="M69.388 19.451L17.93 74.7C17.573 75.083 16.967 75.105 16.582 74.748C16.199 74.391 16.178 73.785 16.534 73.401L67.993 18.152C68.35 17.769 68.956 17.747 69.339 18.104C69.724 18.462 69.744 19.068 69.388 19.451Z" fill="#FFFEFE"/>
<path d="M25.351 54.22C16.485 54.22 8.287 49.776 3.428 42.477C5.327 42.873 7.26399 43.074 9.21099 43.074C21.111 43.074 31.314 35.693 35.502 25.272L33.831 24.056C30.062 33.99 20.45 41.074 9.21099 41.074C6.63299 41.074 4.073 40.696 1.605 39.953C1.219 39.836 0.795996 39.964 0.540996 40.279C0.285996 40.594 0.244999 41.031 0.437999 41.387C5.375 50.481 14.836 56.145 25.162 56.214C25.336 55.537 25.532 54.871 25.742 54.21C25.611 54.212 25.482 54.22 25.351 54.22Z" fill="#FFFEFE"/>
<path d="M53.678 27.8929C53.678 15.4979 45.394 4.34493 33.532 0.770935C33.148 0.652935 32.724 0.781924 32.47 1.09692C32.214 1.41192 32.173 1.84893 32.366 2.20593C34.442 6.02993 35.539 10.3659 35.539 14.7459C35.539 16.5729 35.351 18.357 34.995 20.08L36.752 21.3589C37.262 19.2359 37.539 17.0229 37.539 14.7459C37.539 10.8659 36.738 7.01594 35.208 3.47894C45.014 7.45594 51.679 17.1739 51.679 27.8929C51.679 28.4909 51.612 28.7159 51.612 28.7159L53.646 29.2009C53.645 29.2009 53.678 28.3319 53.678 27.8929Z" fill="#FFFEFE"/>
</svg>
