<svg width="56" height="56" viewBox="0 0 56 56" fill="none" xmlns="http://www.w3.org/2000/svg">
<path d="M47.512 8.48106C37.155 -1.87594 20.585 -2.29795 9.705 7.18705L10.933 8.41506C15.797 4.21406 21.842 2.08406 27.905 2.08406C34.567 2.08406 41.229 4.62006 46.301 9.69206C56.444 19.8361 56.444 36.3401 46.301 46.4841C36.157 56.6291 19.652 56.6281 9.50902 46.4841C-0.157985 36.8171 -0.580002 21.3911 8.179 11.1811L6.94902 9.95105C-2.48098 20.8321 -2.03898 37.3591 8.29802 47.6951C13.703 53.1011 20.804 55.8041 27.905 55.8041C35.005 55.8041 42.106 53.1011 47.512 47.6951C58.324 36.8841 58.324 19.2931 47.512 8.48106Z" fill="white"/>
</svg>
