<svg width="85" height="82" viewBox="0 0 85 82" fill="none" xmlns="http://www.w3.org/2000/svg">
<path d="M15.407 74.794C15.258 74.794 15.106 74.761 14.964 74.69C14.469 74.444 14.267 73.844 14.512 73.35L19.249 63.798C19.495 63.304 20.094 63.1019 20.589 63.3469C21.084 63.5919 21.286 64.192 21.041 64.687L16.304 74.238C16.129 74.59 15.775 74.794 15.407 74.794Z" fill="#FFFEFE"/>
<path d="M20.124 81.569C19.975 81.569 19.824 81.536 19.681 81.465C19.186 81.22 18.984 80.62 19.229 80.125L24.965 68.573C25.211 68.078 25.81 67.877 26.306 68.121C26.8 68.367 27.002 68.967 26.757 69.462L21.021 81.014C20.846 81.365 20.492 81.569 20.124 81.569Z" fill="#FFFEFE"/>
<path d="M52.276 81.569C52.127 81.569 51.976 81.536 51.833 81.465C51.338 81.22 51.136 80.619 51.381 80.125L57.118 68.573C57.363 68.078 57.963 67.877 58.458 68.121C58.953 68.367 59.155 68.968 58.91 69.462L53.173 81.014C52.998 81.365 52.644 81.569 52.276 81.569Z" fill="#FFFEFE"/>
<path d="M63.472 74.794C63.323 74.794 63.171 74.761 63.029 74.69C62.534 74.444 62.332 73.844 62.577 73.35L67.314 63.798C67.56 63.304 68.159 63.1019 68.654 63.3469C69.149 63.5919 69.351 64.192 69.106 64.687L64.369 74.238C64.194 74.59 63.84 74.794 63.472 74.794Z" fill="#FFFEFE"/>
<path d="M65.775 17.303C64.633 7.86398 56.496 0.583984 46.903 0.583984C43.589 0.583984 40.31 1.46497 37.421 3.13297C36.902 3.43097 36.4 3.75197 35.93 4.08597C30.894 7.65397 27.887 14.341 27.887 20.487C27.887 20.515 27.889 20.487 27.89 20.515L29.662 20.487C29.662 14.916 32.389 8.76997 36.956 5.53397C37.382 5.23197 37.836 4.94098 38.308 4.66998C40.927 3.15798 43.9 2.35898 46.903 2.35898C55.846 2.35898 63.393 9.33696 64.085 18.245L64.194 19.092L65.039 19.062C74.382 19.066 82.272 27.262 82.272 36.963C82.272 46.667 74.377 54.863 65.032 54.863C61.109 54.863 58.193 53.792 55.651 51.917L55.381 52.125L54.381 52.99C57.336 55.376 60.999 56.638 65.031 56.638C75.338 56.638 84.047 47.628 84.047 36.962C84.047 26.555 75.755 17.723 65.775 17.303Z" fill="#FFFEFE"/>
<path d="M30.814 50.426C27.763 53.338 23.799 54.874 19.353 54.874C9.84601 54.874 2.11201 47.182 2.11201 37.731C2.11201 35.084 2.71501 32.52 3.90401 30.112C4.11601 29.683 4.35001 29.256 4.60001 28.842C7.75901 23.61 13.112 20.487 19.191 20.487C20.67 20.487 22.381 20.685 23.381 21.054V19.218C22.381 18.884 20.666 18.712 19.191 18.712C12.485 18.712 6.48302 22.156 3.00002 27.924C2.72402 28.381 2.50602 28.853 2.27302 29.326C0.962018 31.979 0.317017 34.806 0.317017 37.728C0.317017 48.159 8.85802 56.646 19.343 56.646C23.945 56.646 28.09 55.144 31.381 52.296L30.814 50.426Z" fill="#FFFEFE"/>
<path d="M45.598 39.62L32.678 60.254C32.549 60.443 32.689 60.698 32.918 60.689L42.499 60.267C42.702 60.258 42.846 60.463 42.769 60.651L36.677 77.677C36.55 77.984 36.97 78.214 37.161 77.942L51.177 55.75C51.307 55.566 51.175 55.313 50.95 55.313H41.866C41.682 55.313 41.55 55.14 41.598 54.964L46.096 39.85C46.175 39.547 45.775 39.364 45.598 39.62Z" stroke="white" stroke-width="2" stroke-miterlimit="10"/>
</svg>
