<svg width="60" height="54" viewBox="0 0 60 54" fill="none" xmlns="http://www.w3.org/2000/svg">
<path d="M52.479 37.304H1.35797C0.886971 37.304 0.502014 36.919 0.502014 36.448C0.502014 35.977 0.887971 35.592 1.35797 35.592H52.479C52.95 35.592 53.334 35.977 53.334 36.448C53.334 36.919 52.949 37.304 52.479 37.304Z" fill="white"/>
<path d="M58.479 45.335H11.358C10.887 45.335 10.502 44.95 10.502 44.479C10.502 44.008 10.888 43.623 11.358 43.623H58.479C58.95 43.623 59.334 44.008 59.334 44.479C59.334 44.95 58.949 45.335 58.479 45.335Z" fill="white"/>
<path d="M38.024 53.3661H22.903C22.431 53.3661 22.046 52.9811 22.046 52.5101C22.046 52.0391 22.431 51.6541 22.903 51.6541H38.024C38.495 51.6541 38.879 52.0391 38.879 52.5101C38.879 52.9821 38.494 53.3661 38.024 53.3661Z" fill="white"/>
<path d="M48.882 8.17904C38.525 -2.17796 21.955 -2.53696 11.075 6.94803L12.303 8.20704C17.167 4.00604 23.212 1.89203 29.275 1.89203C35.937 1.89203 42.599 4.31004 47.671 9.38204C53.579 15.29 56.039 23.948 55.065 30.948H56.79C57.754 22.948 55.124 14.421 48.882 8.17904Z" fill="white"/>
<path d="M9.549 10.8789L8.31798 9.58691C3.05798 15.6559 0.873995 23.9479 1.75999 30.9479H3.48997C2.60697 23.9479 4.63 16.6129 9.549 10.8789Z" fill="white"/>
</svg>
