<svg width="105" height="105" viewBox="0 0 105 105" fill="none" xmlns="http://www.w3.org/2000/svg">
<path d="M78.605 26.3879C78.22 26.0029 78.22 25.3779 78.605 24.9929L84.187 19.4109C84.572 19.0259 85.197 19.0259 85.582 19.4109C85.967 19.7969 85.967 20.4209 85.582 20.8069L80 26.3879C79.615 26.7729 78.99 26.7729 78.605 26.3879Z" fill="black"/>
<path d="M103.394 53.712H90.501C89.956 53.712 89.514 53.27 89.514 52.725C89.514 52.18 89.956 51.739 90.501 51.739H103.394C103.939 51.739 104.381 52.18 104.381 52.725C104.381 53.27 103.939 53.712 103.394 53.712Z" fill="black"/>
<path d="M52.268 104.838C51.723 104.838 51.281 104.396 51.281 103.851V90.958C51.281 90.413 51.723 89.971 52.268 89.971C52.813 89.971 53.255 90.413 53.255 90.958V103.851C53.254 104.397 52.813 104.838 52.268 104.838Z" fill="black"/>
<path d="M0.159015 53.487C0.150015 52.949 0.573019 52.502 1.11102 52.484L14.003 52.208C14.555 52.188 15.015 52.625 15.024 53.176C15.034 53.715 14.61 54.161 14.072 54.18L1.18002 54.456C0.629019 54.475 0.169015 54.039 0.159015 53.487Z" fill="black"/>
<path d="M52.268 15.479C51.723 15.479 51.281 15.037 51.281 14.492V1.59796C51.281 1.05296 51.723 0.610962 52.268 0.610962C52.813 0.610962 53.255 1.05296 53.255 1.59796V14.491C53.254 15.036 52.813 15.479 52.268 15.479Z" fill="black"/>
<path d="M84.187 86.04L78.605 80.458C78.22 80.073 78.22 79.448 78.605 79.063C78.99 78.678 79.615 78.678 80 79.063L85.582 84.645C85.967 85.03 85.967 85.655 85.582 86.04C85.197 86.424 84.572 86.424 84.187 86.04Z" fill="black"/>
<path d="M18.954 86.04C18.569 85.655 18.569 85.03 18.954 84.645L24.536 79.063C24.921 78.678 25.546 78.678 25.931 79.063C26.316 79.448 26.316 80.073 25.931 80.458L20.349 86.04C19.963 86.424 19.338 86.424 18.954 86.04Z" fill="black"/>
<path d="M24.535 26.3879L18.953 20.8069C18.568 20.4209 18.568 19.7969 18.953 19.4109C19.338 19.0259 19.963 19.0259 20.348 19.4109L25.93 24.9929C26.315 25.3779 26.315 26.0029 25.93 26.3879C25.546 26.7729 24.921 26.7729 24.535 26.3879Z" fill="black"/>
<path d="M71.614 33.379C61.395 23.16 45.046 22.744 34.311 32.102L35.522 33.314C40.322 29.169 46.287 27.068 52.268 27.068C58.841 27.068 65.415 29.569 70.419 34.574C80.427 44.582 80.427 60.867 70.419 70.876C60.41 80.885 44.126 80.884 34.117 70.876C24.579 61.337 24.163 46.117 32.805 36.043L31.591 34.829C22.288 45.565 22.723 61.872 32.922 72.071C38.256 77.404 45.262 80.071 52.268 80.071C59.274 80.071 66.28 77.404 71.614 72.071C82.281 61.403 82.281 44.046 71.614 33.379Z" fill="black"/>
</svg>
