<svg width="107" height="67" viewBox="0 0 107 67" fill="none" xmlns="http://www.w3.org/2000/svg">
<path d="M49.442 28.041C49.442 22.234 52.284 15.829 57.045 12.456C57.489 12.141 57.963 11.838 58.453 11.555C61.184 9.97899 64.282 9.14697 67.411 9.14697C76.732 9.14697 84.599 16.42 85.32 25.704L85.434 26.587L86.314 26.556C96.052 26.56 104.275 35.102 104.275 45.213C104.275 55.326 96.046 63.871 86.306 63.871C82.217 63.871 78.685 62.721 75.807 60.161L75.544 60.075H74.606L74.258 60.196C72.48 61.576 68.779 64.373 62.901 64.373C58.585 64.373 55.611 62.969 51.934 59.291L51.295 58.634L50.641 59.248C47.461 62.283 43.329 63.882 38.697 63.882C28.788 63.882 20.727 55.865 20.727 46.013C20.727 43.254 21.356 40.582 22.595 38.074C22.816 37.627 23.059 37.181 23.32 36.749C26.612 31.297 32.296 28.041 38.632 28.041C40.174 28.041 42.103 28.248 43.103 28.632V26.718C42.103 26.371 40.169 26.191 38.632 26.191C31.643 26.191 25.335 29.781 21.704 35.792C21.417 36.268 21.164 36.76 20.921 37.253C19.555 40.019 18.869 42.965 18.869 46.011C18.869 56.882 27.765 65.728 38.692 65.728C43.498 65.728 47.823 64.158 51.257 61.179C55.012 64.743 58.342 66.148 62.901 66.148C69.035 66.148 72.975 63.368 75.034 61.787C78.143 64.363 82.027 65.72 86.306 65.72C97.049 65.72 106.124 56.329 106.124 45.213C106.124 34.365 97.481 25.16 87.08 24.722C85.891 14.885 77.409 7.297 67.41 7.297C63.956 7.297 60.539 8.215 57.528 9.953C56.987 10.264 56.465 10.598 55.974 10.947C50.725 14.666 47.591 21.636 47.591 28.041C47.591 28.069 47.594 28.041 47.594 28.069" fill="white"/>
<path d="M42.334 7.39303C33.206 -1.73397 18.605 -2.10498 9.01703 6.25302L10.099 7.33505C14.385 3.63305 19.713 1.75601 25.056 1.75601C30.926 1.75601 36.797 3.99105 41.267 8.46005C42.89 10.084 44.215 11.893 45.247 13.819L46.313 12.632C45.253 10.756 43.93 8.98903 42.334 7.39303Z" fill="white"/>
<path d="M8.84398 40.883C0.32398 32.364 -0.0480161 18.77 7.67198 9.77197L6.588 8.68799C-1.722 18.277 -1.33201 32.841 7.77599 41.95C10.025 44.199 12.61 45.911 15.368 47.098L16.432 45.914C13.669 44.797 11.081 43.12 8.84398 40.883Z" fill="white"/>
</svg>
