<svg width="68" height="34" viewBox="0 0 68 34" fill="none" xmlns="http://www.w3.org/2000/svg">
<path d="M52.79 17.484H1.66803C1.19703 17.484 0.812012 17.099 0.812012 16.628C0.812012 16.157 1.19703 15.772 1.66803 15.772H52.79C53.261 15.772 53.645 16.157 53.645 16.628C53.646 17.1 53.261 17.484 52.79 17.484Z" fill="white"/>
<path d="M58.79 25.516H11.668C11.197 25.516 10.812 25.131 10.812 24.66C10.812 24.189 11.197 23.804 11.668 23.804H58.79C59.261 23.804 59.645 24.189 59.645 24.66C59.645 25.131 59.261 25.516 58.79 25.516Z" fill="white"/>
<path d="M38.334 33.547H23.213C22.742 33.547 22.357 33.162 22.357 32.691C22.357 32.22 22.742 31.835 23.213 31.835H38.334C38.806 31.835 39.191 32.22 39.191 32.691C39.191 33.162 38.806 33.547 38.334 33.547Z" fill="white"/>
<path d="M13.629 1.93904H57.751C58.222 1.93904 58.607 1.55404 58.607 1.08304C58.607 0.612038 58.222 0.227051 57.751 0.227051H13.629V1.93904Z" fill="white"/>
<path d="M1.82001 1.93904H9.94098V0.227051H1.82001C1.34901 0.227051 0.963013 0.612038 0.963013 1.08304C0.964013 1.55304 1.34901 1.93904 1.82001 1.93904Z" fill="white"/>
<path d="M11.085 9.97006H66.206C66.677 9.97006 67.061 9.58506 67.061 9.11406C67.061 8.64306 66.676 8.25806 66.206 8.25806H11.085C10.614 8.25806 10.229 8.64306 10.229 9.11406C10.229 9.58506 10.614 9.97006 11.085 9.97006Z" fill="white"/>
</svg>
