<svg width="67" height="61" viewBox="0 0 67 61" fill="none" xmlns="http://www.w3.org/2000/svg">
<path d="M52.427 8.64206C42.07 -1.71494 25.5 -2.07396 14.62 7.41104L15.848 8.67001C20.712 4.46901 26.757 2.35501 32.82 2.35501C39.482 2.35501 46.144 4.773 51.216 9.845C57.124 15.753 59.584 24.411 58.61 31.411H60.335C61.299 23.411 58.669 14.8831 52.427 8.64206Z" fill="white"/>
<path d="M13.094 11.3411L11.863 10.0491C6.60296 16.1181 4.41898 24.41 5.30498 31.41H7.03496C6.15196 24.411 8.17498 17.0751 13.094 11.3411Z" fill="white"/>
<path d="M10.628 38.1851H1.508C1.037 38.1851 0.653015 37.8001 0.653015 37.3281C0.653015 36.8571 1.038 36.5811 1.508 36.5811H10.628C11.1 36.5811 11.484 36.8571 11.484 37.3281C11.484 37.8001 11.1 38.1851 10.628 38.1851Z" fill="white"/>
<path d="M38.38 53.059H19.259C18.788 53.059 18.404 52.674 18.404 52.202C18.404 51.731 18.789 51.3469 19.259 51.3469H38.38C38.852 51.3469 39.236 51.732 39.236 52.202C39.236 52.674 38.852 53.059 38.38 53.059Z" fill="white"/>
<path d="M30.193 38.0989H15.072C14.601 38.0989 14.217 37.714 14.217 37.244C14.217 36.774 14.602 36.3889 15.072 36.3889H30.193C30.665 36.3889 31.05 36.774 31.05 37.244C31.05 37.714 30.665 38.0989 30.193 38.0989Z" fill="white"/>
<path d="M60.693 38.0989H35.572C35.101 38.0989 34.717 37.714 34.717 37.244C34.717 36.774 35.102 36.3889 35.572 36.3889H60.693C61.165 36.3889 61.55 36.774 61.55 37.244C61.55 37.714 61.165 38.0989 60.693 38.0989Z" fill="white"/>
<path d="M12.835 46.185H6.716C6.244 46.185 5.85999 45.8 5.85999 45.329C5.85999 44.858 6.245 44.473 6.716 44.473H12.835C13.307 44.473 13.692 44.858 13.692 45.329C13.692 45.8 13.307 46.185 12.835 46.185Z" fill="white"/>
<path d="M35.252 31.811H19.133C18.661 31.811 18.276 31.426 18.276 30.955C18.276 30.484 18.661 30.099 19.133 30.099H35.252C35.724 30.099 36.108 30.484 36.108 30.955C36.109 31.426 35.724 31.811 35.252 31.811Z" fill="white"/>
<path d="M66.272 53.847C66.272 56.389 65.282 58.78 63.484 60.579C63.484 60.579 62.678 60.984 62.137 60.455C61.596 59.926 62.07 59.165 62.07 59.165C63.49 57.744 64.272 55.855 64.272 53.848C64.272 49.718 60.925 46.175 56.802 46.148C56.788 46.148 18.884 46.098 18.884 46.098C18.884 46.098 18.017 45.888 18.017 45.086C18.017 44.284 18.884 44.098 18.884 44.098C18.884 44.098 56.807 44.157 56.829 44.159C62.045 44.201 66.272 48.625 66.272 53.847Z" fill="white"/>
</svg>
