<svg width="85" height="80" viewBox="0 0 85 80" fill="none" xmlns="http://www.w3.org/2000/svg">
<path d="M46.166 39.62L33.246 60.254C33.117 60.443 33.257 60.698 33.486 60.689L43.067 60.267C43.27 60.258 43.414 60.463 43.337 60.651L37.245 77.677C37.118 77.984 37.538 78.214 37.729 77.942L51.745 55.75C51.875 55.566 51.743 55.313 51.518 55.313H42.433C42.249 55.313 42.117 55.14 42.165 54.964L46.662 39.85C46.743 39.547 46.343 39.364 46.166 39.62Z" stroke="white" stroke-width="2" stroke-miterlimit="10"/>
<path d="M65.775 17.303C64.633 7.86398 56.496 0.583984 46.903 0.583984C43.589 0.583984 40.31 1.46497 37.421 3.13297C36.902 3.43097 36.4 3.75197 35.93 4.08597C30.894 7.65397 27.887 14.341 27.887 20.487C27.887 20.515 27.889 20.487 27.89 20.515L29.662 20.487C29.662 14.916 32.389 8.76997 36.956 5.53397C37.382 5.23197 37.836 4.94098 38.308 4.66998C40.927 3.15798 43.9 2.35898 46.903 2.35898C55.846 2.35898 63.393 9.33696 64.085 18.245L64.194 19.092L65.039 19.062C74.382 19.066 82.272 27.262 82.272 36.963C82.272 46.667 74.377 54.863 65.032 54.863C61.109 54.863 58.193 53.792 55.651 51.917L55.381 52.125L54.381 52.99C57.336 55.376 60.999 56.638 65.031 56.638C75.338 56.638 84.047 47.628 84.047 36.962C84.047 26.555 75.755 17.723 65.775 17.303Z" fill="white"/>
<path d="M30.814 50.426C27.763 53.338 23.799 54.874 19.353 54.874C9.846 54.874 2.112 47.182 2.112 37.731C2.112 35.084 2.71499 32.52 3.90399 30.112C4.11599 29.683 4.35001 29.256 4.60001 28.842C7.75901 23.61 13.112 20.487 19.191 20.487C20.67 20.487 22.381 20.685 23.381 21.054V19.218C22.381 18.884 20.666 18.712 19.191 18.712C12.485 18.712 6.483 22.156 3 27.924C2.724 28.381 2.50601 28.853 2.27301 29.326C0.96201 31.979 0.316986 34.806 0.316986 37.728C0.316986 48.159 8.85799 56.646 19.343 56.646C23.945 56.646 28.09 55.144 31.381 52.296L30.814 50.426Z" fill="white"/>
</svg>
