<svg width="85" height="87" viewBox="0 0 85 87" fill="none" xmlns="http://www.w3.org/2000/svg">
<path d="M83.92 30.688L32.462 85.937C32.105 86.32 31.499 86.342 31.115 85.985C30.732 85.628 30.71 85.021 31.067 84.638L82.525 29.389C82.883 29.006 83.489 28.984 83.872 29.341C84.255 29.697 84.276 30.304 83.92 30.688Z" fill="white"/>
<path d="M72.102 23.198L77.087 18.213C77.431 17.869 77.431 17.311 77.087 16.967C76.743 16.623 76.185 16.623 75.841 16.967L70.856 21.952C70.512 22.296 70.512 22.854 70.856 23.198C71.2 23.542 71.758 23.542 72.102 23.198Z" fill="white"/>
<path d="M13.157 46.259L1.642 46.505C1.162 46.522 0.783995 46.9209 0.791995 47.4019C0.800995 47.8939 1.21201 48.284 1.70401 48.267L13.219 48.02C13.699 48.004 14.077 47.6049 14.069 47.1239C14.061 46.6319 13.65 46.242 13.157 46.259Z" fill="white"/>
<path d="M47.381 13.455C47.868 13.455 48.381 13.06 48.381 12.574V1.058C48.381 0.570999 47.868 0.177002 47.381 0.177002C46.894 0.177002 46.381 0.570999 46.381 1.058V12.574C46.381 13.06 46.894 13.455 47.381 13.455Z" fill="white"/>
<path d="M23.811 70.244C23.467 69.9 22.909 69.9 22.565 70.244L17.58 75.229C17.235 75.573 17.235 76.131 17.58 76.476C17.924 76.82 18.482 76.82 18.826 76.476L23.811 71.49C24.154 71.146 24.154 70.588 23.811 70.244Z" fill="white"/>
<path d="M22.565 23.198C22.909 23.542 23.467 23.542 23.811 23.198C24.155 22.854 24.155 22.296 23.811 21.952L18.826 16.967C18.482 16.623 17.924 16.623 17.58 16.967C17.236 17.311 17.236 17.869 17.58 18.213L22.565 23.198Z" fill="white"/>
<path d="M64.612 29.442C55.485 20.315 40.883 19.944 31.295 28.302L32.377 29.384C36.663 25.682 41.991 23.805 47.334 23.805C53.204 23.805 59.075 26.04 63.545 30.509C65.168 32.133 66.493 33.942 67.526 35.868L68.592 34.681C67.531 32.806 66.208 31.039 64.612 29.442Z" fill="white"/>
<path d="M31.122 62.933C22.603 54.414 22.231 40.82 29.95 31.822L28.866 30.738C20.557 40.327 20.946 54.891 30.055 64C32.304 66.249 34.89 67.961 37.647 69.148L38.71 67.964C35.947 66.847 33.359 65.17 31.122 62.933Z" fill="white"/>
</svg>
